<svg xmlns="http://www.w3.org/2000/svg" viewBox="0 0 900 1400" role="img" aria-labelledby="title desc">
  <title id="title">확인 가능한 LLM 작업으로 이어지는 첫 방문 경로</title>
  <desc id="desc">이 다섯 단계 교육 그림은 첫 방문의 순서를 보여 줍니다. 목표를 하나 정하고 LLM Foundation Core를 연 뒤 안전하게 한 번 시도하고 기록을 확인하세요. 다음 경로로 가거나 모르는 점을 드러낸 채 멈춥니다.</desc>
  <defs>
    <marker id="arrow" markerWidth="12" markerHeight="12" refX="8" refY="4" orient="auto">
      <path d="M0 0 8 4 0 8Z" fill="#d71920"/>
    </marker>
    <style>
      .ink { fill:#111; font-family:Arial,Helvetica,sans-serif; }
      .mono { fill:#d71920; font-family:Consolas,'Courier New',monospace; font-weight:700; letter-spacing:1px; }
      .muted { fill:#565650; font-family:Arial,Helvetica,sans-serif; }
      .line { stroke:#111; stroke-width:2; fill:none; }
      .redline { stroke:#d71920; stroke-width:4; fill:none; marker-end:url(#arrow); }
    </style>
  </defs>
  <rect width="900" height="1400" fill="#f3f0e9"/>
  <rect x="42" y="42" width="816" height="1316" fill="#fff" stroke="#111" stroke-width="2"/>
  <text x="78" y="112" class="mono" font-size="22">시작 / 첫 방문</text>
  <text x="78" y="174" class="ink" font-size="48" font-weight="900">안전한 경로 하나.</text>
  <text x="78" y="230" class="ink" font-size="48" font-weight="900">카탈로그보다 먼저.</text>
  <text x="78" y="282" class="muted" font-size="22">목표를 하나 정하고 작게 시도한 뒤 기록을 남기세요.</text>

  <line x1="128" y1="362" x2="128" y2="1154" class="line"/>
  <line x1="128" y1="480" x2="128" y2="538" class="redline"/>
  <line x1="128" y1="642" x2="128" y2="700" class="redline"/>
  <line x1="128" y1="804" x2="128" y2="862" class="redline"/>
  <line x1="128" y1="966" x2="128" y2="1024" class="redline"/>

  <g transform="translate(78 320)">
    <circle cx="50" cy="48" r="34" fill="#111"/>
    <text x="50" y="58" fill="#fff" font-family="Consolas,'Courier New',monospace" font-size="25" font-weight="700" text-anchor="middle">01</text>
    <rect x="112" width="650" height="120" fill="#111"/>
    <text x="140" y="44" class="mono" fill="#fff" font-size="19">선택</text>
    <text x="140" y="78" fill="#fff" font-size="28" font-weight="900">결과를 하나로 정하세요.</text>
    <text x="140" y="106" fill="#c8c8c2" font-size="17">작은 한 가지를 이해하거나 연습하거나 점검하세요.</text>
  </g>

  <g transform="translate(78 482)">
    <circle cx="50" cy="48" r="34" fill="#d71920"/>
    <text x="50" y="58" fill="#111" font-family="Consolas,'Courier New',monospace" font-size="25" font-weight="700" text-anchor="middle">02</text>
    <rect x="112" width="650" height="120" fill="#fff" stroke="#111" stroke-width="2"/>
    <text x="140" y="44" class="mono" font-size="19">열기</text>
    <text x="140" y="78" class="ink" font-size="28" font-weight="900">LLM Foundation Core부터 시작하세요.</text>
    <text x="140" y="106" class="muted" font-size="17">플랫폼을 고르기 전에 모델의 경계를 알아보세요.</text>
  </g>

  <g transform="translate(78 644)">
    <circle cx="50" cy="48" r="34" fill="#fff" stroke="#111" stroke-width="2"/>
    <text x="50" y="58" class="mono" font-size="25" text-anchor="middle">03</text>
    <rect x="112" width="650" height="120" fill="#ffe5e9" stroke="#111" stroke-width="2"/>
    <text x="140" y="44" class="mono" font-size="19">시도</text>
    <text x="140" y="78" class="ink" font-size="28" font-weight="900">안전하게 한 번 시도하세요.</text>
    <text x="140" y="106" class="muted" font-size="17">허구 또는 로컬의 민감하지 않은 자료를 사용하세요.</text>
  </g>

  <g transform="translate(78 806)">
    <circle cx="50" cy="48" r="34" fill="#111"/>
    <text x="50" y="58" fill="#fff" font-family="Consolas,'Courier New',monospace" font-size="25" font-weight="700" text-anchor="middle">04</text>
    <rect x="112" width="650" height="120" fill="#d71920"/>
    <text x="140" y="44" fill="#111" font-family="Consolas,'Courier New',monospace" font-size="19" font-weight="700">점검</text>
    <text x="140" y="78" fill="#fff" font-size="28" font-weight="900">실제 기록을 읽으세요.</text>
    <text x="140" y="106" fill="#fff" font-size="17">답변, diff, 출처, 테스트 또는 로그를 대조하세요.</text>
  </g>

  <g transform="translate(78 968)">
    <circle cx="50" cy="48" r="34" fill="#111"/>
    <text x="50" y="58" fill="#fff" font-family="Consolas,'Courier New',monospace" font-size="25" font-weight="700" text-anchor="middle">05</text>
    <rect x="112" width="650" height="120" fill="#111"/>
    <text x="140" y="44" class="mono" fill="#fff" font-size="19">계속 / 중지</text>
    <text x="140" y="78" fill="#fff" font-size="28" font-weight="900">다음 범위가 분명한 경로를 고르세요.</text>
    <text x="140" y="106" fill="#c8c8c2" font-size="17">다음 증거가 없으면 모르는 점을 그대로 보이게 하세요.</text>
  </g>

  <rect x="78" y="1160" width="762" height="116" fill="#f3f0e9" stroke="#111" stroke-width="2"/>
  <text x="102" y="1200" class="mono" font-size="17">경계</text>
  <text x="102" y="1236" class="ink" font-size="21" font-weight="700">카탈로그는 선택지 모음이지 첫 작업이 아닙니다.</text>
  <text x="102" y="1264" class="muted" font-size="17">이 경로는 방문자의 방향을 잡아 주지만 학습이나 숙련을 증명하지 않습니다.</text>
  <text x="78" y="1320" class="muted" font-size="17">PRYSAI LAB / 프로젝트 원본 교육 그림 / 작게 시작하고 중요한 것을 점검하기</text>
</svg>
